<?xml version="1.0" encoding="UTF-8" standalone="no"?>
<!-- Generator: Adobe Illustrator 13.0.0, SVG Export Plug-In . SVG Version: 6.00 Build 14948)  -->

<svg
   xmlns:dc="http://purl.org/dc/elements/1.1/"
   xmlns:cc="http://creativecommons.org/ns#"
   xmlns:rdf="http://www.w3.org/1999/02/22-rdf-syntax-ns#"
   xmlns:svg="http://www.w3.org/2000/svg"
   xmlns="http://www.w3.org/2000/svg"
   xmlns:sodipodi="http://sodipodi.sourceforge.net/DTD/sodipodi-0.dtd"
   xmlns:inkscape="http://www.inkscape.org/namespaces/inkscape"
   version="1.1"
   id="Layer_1"
   x="0px"
   y="0px"
   width="755.626px"
   height="170.927px"
   viewBox="0 0 755.626 170.927"
   enable-background="new 0 0 755.626 170.927"
   xml:space="preserve"
   inkscape:version="0.48.0 r9654"
   sodipodi:docname="Amiga_A.svg"><metadata
   id="metadata3207"><rdf:RDF><cc:Work
       rdf:about=""><dc:format>image/svg+xml</dc:format><dc:type
         rdf:resource="http://purl.org/dc/dcmitype/StillImage" /><dc:title></dc:title></cc:Work></rdf:RDF></metadata><defs
   id="defs3205">
	
	
	
	
	
	<linearGradient
   y2="0"
   x2="114.0107"
   y1="167.4395"
   x1="114.0107"
   gradientUnits="userSpaceOnUse"
   id="SVGID_3_">
		<stop
   id="stop3162"
   style="stop-color:#41962F"
   offset="0" />
		<stop
   id="stop3164"
   style="stop-color:#54AA45"
   offset="0.1337" />
		<stop
   id="stop3166"
   style="stop-color:#FFCC27"
   offset="0.4225" />
		<stop
   id="stop3168"
   style="stop-color:#FFCC27"
   offset="0.5348" />
		<stop
   id="stop3170"
   style="stop-color:#F9661C"
   offset="0.7807" />
		<stop
   id="stop3172"
   style="stop-color:#DC421E"
   offset="1" />
	</linearGradient>
	
	<linearGradient
   y2="0"
   x2="139.0107"
   y1="167.4395"
   x1="139.0107"
   gradientUnits="userSpaceOnUse"
   id="SVGID_4_">
		<stop
   id="stop3177"
   style="stop-color:#41962F"
   offset="0" />
		<stop
   id="stop3179"
   style="stop-color:#54AA45"
   offset="0.1337" />
		<stop
   id="stop3181"
   style="stop-color:#FFCC27"
   offset="0.4225" />
		<stop
   id="stop3183"
   style="stop-color:#FFCC27"
   offset="0.5348" />
		<stop
   id="stop3185"
   style="stop-color:#F9661C"
   offset="0.7807" />
		<stop
   id="stop3187"
   style="stop-color:#DC421E"
   offset="1" />
	</linearGradient>
	
	

		
		
		
		
		
	</defs><sodipodi:namedview
   pagecolor="#ffffff"
   bordercolor="#666666"
   borderopacity="1"
   objecttolerance="10"
   gridtolerance="10"
   guidetolerance="10"
   inkscape:pageopacity="0"
   inkscape:pageshadow="2"
   inkscape:window-width="1186"
   inkscape:window-height="779"
   id="namedview3203"
   showgrid="false"
   inkscape:zoom="0.5"
   inkscape:cx="697.78639"
   inkscape:cy="85.463501"
   inkscape:window-x="0"
   inkscape:window-y="0"
   inkscape:window-maximized="0"
   inkscape:current-layer="Layer_1" />
<path
   d="m 599.99537,155.57194 0.20257,-7.97727 -7.99682,7.97727 h 7.79425 z m 0.0725,1.47446 h -9.33536 l -1.82232,1.8943 -2.05243,2.06114 c -0.39456,0.45191 -0.67997,0.85999 -0.85475,1.22496 -0.13644,0.28032 -0.19617,0.56038 -0.18339,0.84045 0.015,0.29282 0.21732,0.56438 0.60941,0.81438 0.39234,0.24975 1.02953,0.39304 1.90985,0.42987 l 0.03,0.6275 h -9.05387 l 0.19371,-0.6275 c 0.79722,-0.10851 1.50054,-0.34095 2.1102,-0.6929 0.80976,-0.48848 1.95876,-1.492 3.44627,-3.01456 l 20.47363,-20.66524 h 1.00593 l -0.003,20.00266 c 0.006,1.04486 0.015,1.67688 0.0256,1.89607 0.0425,0.83191 0.27261,1.43537 0.6947,1.81338 0.42406,0.38027 1.10624,0.59971 2.05243,0.66059 l -0.19175,0.6275 h -13.10563 l 0.2151,-0.6275 c 1.2938,-0.098 2.03547,-0.18238 2.22524,-0.25402 0.41127,-0.16959 0.77362,-0.5258 1.09124,-1.06413 0.3154,-0.54109 0.47961,-1.47723 0.48821,-2.81265 l 0.0303,-3.1343 z"
   id="path3193"
   inkscape:connector-curvature="0"
   inkscape:export-filename="/Users/weiju/Desktop/filled_a.png"
   inkscape:export-xdpi="71.99942"
   inkscape:export-ydpi="71.99942" /><path
   d="m 652.53489,158.8868 0.19644,-7.62013 -7.6709,7.62013 h 7.47446 z m 0.0696,1.40845 h -8.95255 l -1.74829,1.80948 -1.96853,1.96887 c -0.37847,0.43168 -0.65249,0.82147 -0.82204,1.17011 -0.12875,0.26777 -0.18794,0.5353 -0.17379,0.80282 0.0144,0.27973 0.20846,0.53911 0.58481,0.77792 0.37613,0.23857 0.98521,0.37545 1.83201,0.41063 l 0.0285,0.59941 h -8.68512 l 0.18416,-0.59941 c 0.76662,-0.10353 1.44128,-0.32568 2.02374,-0.66187 0.77697,-0.46662 1.88127,-1.42521 3.30817,-2.8796 l 19.63896,-19.74006 h 0.96495 l -0.004,19.10714 c 0.009,0.99807 0.0165,1.60181 0.0264,1.81118 0.0392,0.79467 0.26174,1.37111 0.6664,1.7322 0.40487,0.36324 1.06137,0.57286 1.96712,0.63101 l -0.18416,0.59941 h -12.57151 l 0.20846,-0.59941 c 1.23894,-0.0936 1.9525,-0.1742 2.13479,-0.24265 0.39238,-0.16199 0.74186,-0.50225 1.04463,-1.01649 0.30468,-0.51686 0.45984,-1.41109 0.47021,-2.68672 l 0.0267,-2.99397 z"
   id="path3201"
   inkscape:connector-curvature="0"
   style="fill:none;stroke:#000000;stroke-width:1.22373962;stroke-miterlimit:4;stroke-opacity:1;stroke-dasharray:none"
   inkscape:export-filename="/Users/weiju/Desktop/hollow_a.png"
   inkscape:export-xdpi="72"
   inkscape:export-ydpi="72" />
</svg>